<?xml version="1.0" standalone="no"?>
<!DOCTYPE svg PUBLIC "-//W3C//DTD SVG 20010904//EN"
 "http://www.w3.org/TR/2001/REC-SVG-20010904/DTD/svg10.dtd">
<svg version="1.0" xmlns="http://www.w3.org/2000/svg"
 width="225.000000pt" height="225.000000pt" viewBox="0 0 225.000000 225.000000"
 preserveAspectRatio="xMidYMid meet">

<g transform="translate(0.000000,225.000000) scale(0.100000,-0.100000)"
fill="#000000" stroke="none">
<path d="M900 2219 c-125 -27 -277 -87 -372 -149 -43 -27 -78 -52 -78 -56 0
-13 146 8 175 26 53 31 207 88 290 106 104 22 313 23 410 1 291 -65 503 -211
685 -469 l32 -47 28 21 28 20 -23 40 c-72 127 -208 263 -362 362 -223 144
-545 201 -813 145z"/>
<path d="M860 1727 c0 -369 -1 -365 66 -393 41 -17 349 -20 407 -3 26 7 44 21
57 42 19 30 20 53 20 360 l0 327 -275 0 -275 0 0 -333z m378 102 c53 -18 62
-44 62 -182 0 -110 -2 -127 -20 -150 -41 -52 -132 -40 -159 20 -6 13 -11 75
-11 137 0 101 2 116 21 140 19 24 49 43 70 45 3 1 20 -4 37 -10z m97 -409 c0
-22 -5 -25 -43 -28 -31 -2 -44 1 -48 12 -13 33 4 47 48 44 38 -3 43 -6 43 -28z"/>
<path d="M1182 1268 c-14 -14 2 -38 24 -38 8 0 14 -4 14 -9 0 -15 -18 -23 -25
-11 -8 13 -25 13 -25 1 0 -16 40 -23 55 -11 21 18 18 29 -10 42 -30 14 -33 32
-4 23 15 -5 19 -4 15 4 -9 14 -29 14 -44 -1z"/>
<path d="M756 1254 c-11 -29 -6 -45 17 -53 34 -13 47 -3 45 38 l-1 36 -4 -32
c-3 -25 -9 -33 -25 -33 -17 0 -20 5 -16 30 5 32 -6 41 -16 14z"/>
<path d="M841 1233 c2 -31 3 -33 6 -10 2 15 8 27 12 27 12 0 28 -22 34 -45 2
-11 5 0 6 25 0 29 -2 40 -8 31 -6 -9 -11 -10 -15 -2 -16 26 -36 11 -35 -26z"/>
<path d="M920 1229 c0 -24 4 -38 10 -34 6 3 10 22 10 41 0 19 -4 34 -10 34 -5
0 -10 -18 -10 -41z"/>
<path d="M950 1267 c0 -2 5 -18 11 -36 12 -34 24 -40 33 -15 9 22 8 24 -9 18
-9 -4 -15 0 -15 9 0 9 -4 19 -10 22 -5 3 -10 4 -10 2z"/>
<path d="M1023 1235 c-3 -30 1 -36 23 -41 14 -4 30 -2 37 5 9 9 6 11 -13 9
-22 -3 -25 2 -28 30 -4 42 -16 41 -19 -3z"/>
<path d="M1101 1228 c1 -24 4 -33 6 -20 5 28 19 28 33 1 7 -11 14 -18 17 -15
3 3 0 12 -7 21 -10 11 -10 18 -1 29 8 10 9 16 1 21 -5 3 -10 -1 -10 -9 0 -9
-7 -16 -16 -16 -10 0 -14 6 -10 15 3 8 1 15 -4 15 -6 0 -9 -19 -9 -42z"/>
<path d="M1250 1235 c0 -19 3 -35 8 -35 4 0 7 16 7 35 0 19 -3 35 -7 35 -5 0
-8 -16 -8 -35z"/>
<path d="M1292 1239 c-1 -20 0 -38 3 -41 12 -11 55 5 61 24 6 20 -11 49 -30
47 -7 0 -6 -2 2 -6 6 -2 12 -16 12 -29 0 -17 -6 -24 -19 -24 -15 0 -21 8 -24
33 l-4 32 -1 -36z"/>
<path d="M1375 1233 c-8 -20 -13 -38 -10 -41 3 -3 11 9 17 26 7 18 16 32 21
32 4 0 5 -5 2 -10 -3 -6 1 -17 9 -26 19 -18 19 -17 5 25 -14 41 -25 39 -44 -6z"/>
<path d="M1452 1239 c-1 -20 0 -38 3 -41 12 -11 55 5 61 24 6 20 -11 49 -30
47 -7 0 -6 -2 2 -6 6 -2 12 -16 12 -29 0 -17 -6 -24 -19 -24 -15 0 -21 8 -24
33 l-4 32 -1 -36z"/>
<path d="M740 1109 c0 -39 1 -40 33 -37 25 2 33 8 35 26 5 30 -14 52 -44 52
-21 0 -24 -5 -24 -41z m55 1 c0 -16 -6 -26 -17 -28 -14 -3 -18 3 -18 28 0 25
4 31 18 28 11 -2 17 -12 17 -28z"/>
<path d="M830 1110 c0 -39 1 -40 33 -39 29 2 29 2 5 6 -22 3 -26 9 -26 33 1
23 6 30 27 33 22 3 21 4 -6 6 -32 1 -33 0 -33 -39z"/>
<path d="M900 1110 c0 -39 1 -40 33 -39 23 1 26 3 10 6 -19 4 -23 11 -23 39 0
19 -4 34 -10 34 -5 0 -10 -18 -10 -40z"/>
<path d="M1040 1130 c-17 -32 4 -60 44 -60 30 0 33 3 31 28 -1 16 -5 34 -9 40
-12 19 -54 14 -66 -8z m60 -15 c0 -19 -4 -23 -17 -18 -11 4 -14 3 -9 -5 4 -7
2 -12 -4 -12 -14 0 -24 26 -16 45 3 8 15 15 26 15 15 0 20 -7 20 -25z"/>
<path d="M1136 1124 c-8 -32 8 -54 40 -54 21 0 24 5 24 40 0 22 -5 40 -11 40
-6 0 -9 -14 -7 -32 2 -24 -1 -34 -13 -36 -21 -4 -32 24 -19 49 6 11 7 19 1 19
-5 0 -12 -12 -15 -26z"/>
<path d="M1223 1110 c0 -25 2 -35 4 -22 2 12 2 32 0 45 -2 12 -4 2 -4 -23z"/>
<path d="M1251 1108 c2 -42 2 -42 8 -9 6 32 7 32 22 15 9 -11 19 -26 22 -34 3
-8 5 5 6 30 0 29 -3 38 -8 27 -6 -17 -8 -17 -20 -3 -22 26 -31 18 -30 -26z"/>
<path d="M1330 1110 c0 -33 3 -40 19 -40 34 0 51 12 51 34 0 28 -18 46 -47 46
-20 0 -23 -5 -23 -40z m55 0 c0 -16 -6 -26 -17 -28 -14 -3 -18 3 -18 28 0 25
4 31 18 28 11 -2 17 -12 17 -28z"/>
<path d="M1423 1110 c0 -25 2 -35 4 -22 2 12 2 32 0 45 -2 12 -4 2 -4 -23z"/>
<path d="M1460 1135 c-26 -32 13 -81 48 -59 34 22 22 74 -18 74 -10 0 -23 -7
-30 -15z m54 -10 c8 -23 -4 -45 -25 -45 -22 0 -34 22 -25 45 3 8 14 15 25 15
10 0 21 -7 25 -15z"/>
<path d="M40 1122 c-35 -23 -39 -31 -35 -66 32 -269 94 -430 239 -623 156
-208 370 -343 649 -411 55 -13 111 -17 237 -16 145 1 177 4 264 28 372 100
669 373 789 726 28 83 57 213 57 258 0 26 -2 28 -35 24 -26 -3 -36 -10 -39
-26 -2 -11 -9 -50 -16 -86 -27 -148 -96 -308 -183 -426 -174 -235 -422 -379
-724 -422 -108 -15 -124 -15 -234 1 -148 22 -228 46 -354 108 -322 158 -552
497 -572 847 -3 56 -9 102 -12 101 -3 0 -17 -8 -31 -17z"/>
<path d="M721 768 c1 -35 4 -53 6 -41 3 15 13 23 30 25 59 7 54 70 -6 76 l-31
3 1 -63z m64 22 c0 -9 -11 -16 -27 -18 -23 -3 -28 1 -28 18 0 17 5 21 28 18
16 -2 27 -9 27 -18z"/>
<path d="M843 755 c0 -27 2 -38 4 -22 2 15 2 37 0 50 -2 12 -4 0 -4 -28z"/>
<path d="M922 788 c-26 -26 -7 -79 27 -77 10 0 7 4 -6 9 -16 6 -23 18 -23 35
0 17 7 29 23 35 13 5 16 9 7 9 -9 1 -21 -4 -28 -11z"/>
<path d="M1035 789 c-4 -6 -4 -13 -1 -16 3 -4 6 -1 6 5 0 6 8 13 18 15 15 4
15 5 0 6 -9 0 -20 -4 -23 -10z"/>
<path d="M1087 793 c-6 -12 -1 -82 6 -90 4 -3 7 17 7 45 0 49 -4 62 -13 45z"/>
<path d="M1143 755 c0 -27 2 -38 4 -22 2 15 2 37 0 50 -2 12 -4 0 -4 -28z"/>
<path d="M1216 792 c-3 -5 6 -7 19 -4 25 4 35 -12 13 -21 -8 -3 -5 -6 5 -6 26
-1 17 33 -10 37 -11 2 -24 -1 -27 -6z"/>
<path d="M1300 755 c0 -27 2 -46 4 -44 8 8 10 78 3 85 -4 4 -7 -14 -7 -41z"/>
<path d="M1344 788 c14 -11 17 -23 14 -46 -2 -18 -1 -32 4 -32 5 0 8 19 6 42
-2 34 -7 44 -23 46 -19 4 -19 3 -1 -10z"/>
<path d="M1397 793 c6 -4 13 -26 16 -48 4 -40 4 -40 3 4 -1 30 -6 46 -16 48
-10 3 -11 2 -3 -4z"/>
<path d="M1493 794 c20 -6 22 -20 5 -27 -8 -3 -5 -6 5 -6 26 -1 18 33 -8 36
-16 1 -16 1 -2 -3z"/>
<path d="M975 755 c0 -18 3 -31 8 -28 4 2 7 15 7 28 0 13 -3 26 -7 28 -5 3 -8
-10 -8 -28z"/>
<path d="M1205 750 c-9 -14 13 -40 34 -39 11 0 9 3 -6 9 -25 10 -30 26 -10 33
9 4 9 6 0 6 -6 1 -15 -4 -18 -9z"/>
<path d="M1464 745 c-8 -19 4 -35 24 -34 14 1 14 2 -1 6 -13 3 -17 11 -14 24
6 22 -1 26 -9 4z"/>
<path d="M1261 734 c0 -11 3 -14 6 -6 3 7 2 16 -1 19 -3 4 -6 -2 -5 -13z"/>
<path d="M1033 730 c2 -8 12 -16 23 -17 13 -2 15 -1 4 4 -8 3 -19 11 -23 17
-6 7 -7 6 -4 -4z"/>
<path d="M1510 731 c0 -6 4 -13 10 -16 6 -3 7 1 4 9 -7 18 -14 21 -14 7z"/>
<path d="M1032 678 c16 -10 45 -10 51 0 3 4 -10 7 -29 8 -21 0 -30 -3 -22 -8z"/>
<path d="M387 603 c-12 -12 -7 -22 8 -17 8 4 15 1 15 -7 0 -7 2 -10 5 -7 7 7
-5 38 -14 38 -4 0 -11 -3 -14 -7z"/>
<path d="M550 595 c0 -8 -5 -15 -11 -15 -8 0 -8 -5 1 -15 7 -8 10 -25 6 -39
-3 -14 -2 -28 4 -31 6 -4 10 16 10 54 0 34 -2 61 -5 61 -3 0 -5 -7 -5 -15z"/>
<path d="M1772 598 c-1 -10 -7 -18 -12 -18 -6 0 -5 -8 2 -20 10 -16 10 -24 1
-40 -9 -13 -9 -21 -2 -26 17 -10 20 1 16 62 -2 33 -4 51 -5 42z"/>
<path d="M1058 595 c-9 -10 8 -99 20 -101 7 -1 8 0 2 3 -14 7 -13 80 2 85 8 3
6 6 -4 10 -9 4 -18 5 -20 3z"/>
<path d="M490 575 c-19 -22 -8 -25 13 -3 9 10 13 18 8 18 -5 0 -14 -7 -21 -15z"/>
<path d="M590 540 c0 -29 2 -51 4 -49 8 8 10 88 3 95 -4 4 -7 -17 -7 -46z"/>
<path d="M637 574 c3 -7 9 -14 14 -14 14 0 10 17 -5 23 -10 4 -13 1 -9 -9z"/>
<path d="M687 583 c6 -5 14 -29 16 -53 l4 -45 -1 49 c-1 35 -5 51 -16 53 -10
3 -11 2 -3 -4z"/>
<path d="M753 540 c0 -30 2 -43 4 -27 2 15 2 39 0 55 -2 15 -4 2 -4 -28z"/>
<path d="M800 540 c0 -29 2 -51 4 -49 8 8 10 88 3 95 -4 4 -7 -17 -7 -46z"/>
<path d="M847 583 c6 -5 14 -29 16 -53 l4 -45 -1 49 c-1 35 -5 51 -16 53 -10
3 -11 2 -3 -4z"/>
<path d="M913 540 c0 -30 2 -43 4 -27 2 15 2 39 0 55 -2 15 -4 2 -4 -28z"/>
<path d="M959 573 c-13 -16 -12 -17 3 -5 10 8 27 11 40 7 18 -5 20 -4 8 4 -22
15 -36 13 -51 -6z"/>
<path d="M1120 540 c0 -29 2 -51 4 -49 8 8 10 88 3 95 -4 4 -7 -17 -7 -46z"/>
<path d="M1200 580 c-11 -8 -8 -9 12 -4 22 5 27 2 31 -18 5 -22 5 -22 4 2 -2
27 -23 36 -47 20z"/>
<path d="M1312 578 c-7 -7 -12 -17 -12 -22 0 -6 5 -3 11 7 7 12 17 16 32 12
17 -5 19 -4 7 4 -19 14 -23 14 -38 -1z"/>
<path d="M1460 575 c-19 -22 -8 -25 13 -3 9 10 13 18 8 18 -5 0 -14 -7 -21
-15z"/>
<path d="M1550 540 c0 -29 2 -51 4 -49 8 8 10 88 3 95 -4 4 -7 -17 -7 -46z"/>
<path d="M1597 583 c6 -5 14 -29 16 -53 l4 -45 -1 49 c-1 35 -5 51 -16 53 -10
3 -11 2 -3 -4z"/>
<path d="M1710 575 c-19 -22 -8 -25 13 -3 9 10 13 18 8 18 -5 0 -14 -7 -21
-15z"/>
<path d="M1816 574 c-9 -8 -16 -24 -16 -34 0 -35 49 -65 65 -40 3 6 -1 7 -10
4 -16 -6 -45 11 -45 27 0 5 16 9 35 9 19 0 35 4 35 8 0 4 -17 6 -37 4 l-38 -3
24 20 c13 12 19 21 13 21 -6 0 -18 -7 -26 -16z"/>
<path d="M1508 545 c5 -40 -17 -56 -46 -34 -16 12 -15 11 1 -6 14 -15 21 -17
35 -9 19 12 29 61 15 75 -5 5 -7 -6 -5 -26z"/>
<path d="M420 553 c0 -8 -13 -13 -30 -13 -16 0 -30 -4 -30 -10 0 -5 16 -10 35
-10 22 0 38 -6 44 -17 15 -26 13 -10 -4 28 -8 19 -14 28 -15 22z"/>
<path d="M988 537 c24 -7 31 -14 27 -26 -5 -13 -4 -14 7 -3 11 11 10 16 -6 28
-11 8 -29 14 -40 13 -15 -1 -11 -4 12 -12z"/>
<path d="M1194 535 c-8 -20 2 -45 18 -44 10 0 10 2 1 6 -7 2 -13 13 -13 23 0
10 6 21 13 23 9 4 9 6 -1 6 -7 1 -15 -6 -18 -14z"/>
<path d="M480 521 c0 -10 29 -36 34 -30 1 2 -6 12 -16 22 -10 9 -18 13 -18 8z"/>
<path d="M1240 516 c0 -8 4 -17 9 -20 5 -4 7 3 4 14 -6 23 -13 26 -13 6z"/>
<path d="M1700 521 c0 -10 29 -36 34 -30 1 2 -6 12 -16 22 -10 9 -18 13 -18 8z"/>
<path d="M968 498 c5 -5 16 -8 23 -6 8 3 3 7 -10 11 -17 4 -21 3 -13 -5z"/>
<path d="M730 348 c4 -63 4 -63 10 -18 l5 45 14 -32 c7 -18 19 -38 27 -44 11
-9 14 -7 14 10 0 12 -4 19 -10 16 -5 -3 -19 15 -31 40 -12 25 -24 45 -28 45
-3 0 -4 -28 -1 -62z"/>
<path d="M856 372 c-3 -5 4 -8 16 -8 12 1 23 -5 26 -13 3 -10 -3 -13 -27 -9
-32 5 -37 -4 -25 -36 6 -16 49 -22 58 -8 2 4 -7 8 -21 7 -14 0 -28 6 -30 13
-3 8 6 12 26 12 19 0 31 5 31 13 0 27 -41 49 -54 29z"/>
<path d="M1017 373 c-6 -12 -1 -82 6 -90 4 -3 7 17 7 45 0 49 -4 62 -13 45z"/>
<path d="M1210 370 c8 -5 20 -10 25 -10 6 0 3 5 -5 10 -8 5 -19 10 -25 10 -5
0 -3 -5 5 -10z"/>
<path d="M1465 370 c27 -12 43 -12 25 0 -8 5 -22 9 -30 9 -10 0 -8 -3 5 -9z"/>
<path d="M951 354 c0 -11 3 -14 6 -6 3 7 2 16 -1 19 -3 4 -6 -2 -5 -13z"/>
<path d="M1064 356 c-3 -8 -4 -25 -2 -38 6 -45 79 -31 77 16 -1 19 -2 18 -8
-4 -5 -18 -14 -25 -31 -25 -22 0 -25 5 -25 33 0 35 -3 40 -11 18z"/>
<path d="M1385 337 c0 -25 -5 -33 -22 -35 -15 -2 -23 3 -28 18 -4 12 -9 19
-12 17 -2 -3 0 -15 7 -26 12 -23 40 -27 58 -9 13 13 16 54 4 61 -4 3 -7 -9 -7
-26z"/>
<path d="M1437 344 c2 -7 15 -15 29 -18 35 -9 30 -29 -5 -24 -17 2 -28 1 -25
-4 3 -4 18 -8 35 -8 42 0 39 31 -5 51 -25 11 -33 12 -29 3z"/>
<path d="M1171 337 c-3 -32 48 -63 63 -38 3 4 -5 6 -17 4 -17 -3 -26 2 -34 19
-7 13 -12 19 -12 15z"/>
<path d="M953 310 c2 -8 14 -16 28 -17 19 -1 20 -1 4 4 -11 3 -24 10 -28 17
-6 7 -7 6 -4 -4z"/>
<path d="M958 258 c6 -6 18 -8 28 -6 14 3 12 5 -9 10 -19 3 -25 2 -19 -4z"/>
</g>
</svg>
