<?xml version="1.0" standalone="no"?>
<!DOCTYPE svg PUBLIC "-//W3C//DTD SVG 20010904//EN"
 "http://www.w3.org/TR/2001/REC-SVG-20010904/DTD/svg10.dtd">
<svg version="1.0" xmlns="http://www.w3.org/2000/svg"
 width="451.000000pt" height="500.000000pt" viewBox="0 0 451.000000 500.000000"
 preserveAspectRatio="xMidYMid meet">
<metadata>
Created by potrace 1.16, written by Peter Selinger 2001-2019
</metadata>
<g transform="translate(0.000000,500.000000) scale(0.100000,-0.100000)"
fill="#000000" stroke="none">
<path d="M0 2500 l0 -2500 2255 0 2255 0 0 2500 0 2500 -2255 0 -2255 0 0
-2500z m3410 752 c0 -1438 2 -1375 -57 -1483 -56 -104 -179 -194 -296 -219
-37 -7 -292 -10 -818 -8 l-764 3 -56 23 c-129 52 -221 146 -265 270 l-24 67 0
1333 0 1332 1140 0 1140 0 0 -1318z m-2570 -1905 c0 -8 -9 -22 -19 -31 -25
-22 -51 -98 -51 -146 0 -33 20 -76 44 -92 6 -4 32 -8 59 -8 l47 0 0 129 c0 90
-4 131 -12 133 -28 10 7 28 53 28 49 0 62 -13 38 -37 -12 -12 -8 -252 5 -288
7 -19 4 -20 -106 -15 -127 6 -156 17 -184 72 -21 41 -15 119 14 179 13 26 19
53 16 67 -6 21 -3 22 45 22 36 0 51 -4 51 -13z m363 -57 c39 -38 71 -70 71
-70 6 0 -8 108 -15 116 -13 16 0 24 42 24 36 0 65 -20 41 -28 -15 -5 -17 -292
-2 -292 6 0 10 -4 10 -10 0 -5 -22 -10 -50 -10 -47 0 -63 11 -40 25 6 3 10 23
10 43 0 33 -9 46 -80 117 l-80 80 0 -117 c0 -71 4 -119 11 -123 22 -14 1 -30
-37 -26 -49 4 -61 11 -40 23 13 8 16 30 16 143 0 78 -4 136 -10 140 -5 3 -10
13 -10 21 0 10 13 14 47 14 44 0 50 -3 116 -70z m390 64 c3 -3 1 -14 -4 -23
-7 -11 0 -46 25 -121 19 -58 37 -98 40 -90 38 101 65 197 60 216 l-6 23 181 1
181 0 0 -40 c0 -41 -21 -57 -34 -25 -4 11 -22 15 -76 15 l-70 0 0 -40 0 -40
54 0 c30 0 58 5 61 10 3 6 13 10 21 10 10 0 14 -12 14 -45 0 -32 -4 -45 -14
-45 -8 0 -16 4 -18 9 -3 8 -65 15 -105 12 -9 -1 -13 -20 -13 -61 l0 -60 69 0
c49 0 74 5 85 15 25 25 37 18 34 -21 l-3 -35 -135 0 c-124 0 -161 7 -131 26
16 9 15 272 -1 281 -18 12 -35 -21 -83 -167 l-47 -139 -38 0 -38 0 -52 155
c-68 204 -80 206 -80 10 0 -97 4 -145 11 -145 6 0 9 -5 7 -12 -3 -8 -23 -11
-59 -9 -61 3 -68 6 -51 23 17 17 17 285 0 290 -6 2 -8 10 -4 16 7 13 207 18
219 6z m709 -4 c80 -23 102 -100 44 -155 l-35 -33 45 -67 c24 -38 44 -70 44
-71 0 -2 -19 -4 -42 -4 -43 0 -43 1 -82 70 -31 55 -45 70 -63 70 -21 0 -23 -4
-23 -54 0 -30 5 -58 10 -61 24 -15 6 -25 -45 -25 -51 0 -69 10 -45 25 15 9 13
282 -2 287 -6 2 -8 10 -4 16 9 15 146 16 198 2z m334 -6 c54 -26 61 -40 34
-69 -28 -29 -50 -32 -50 -7 0 10 -5 23 -12 30 -17 17 -93 15 -108 -3 -20 -24
3 -42 80 -65 105 -31 142 -88 105 -159 -41 -81 -204 -82 -263 -2 l-21 29 39
26 c39 25 58 21 46 -10 -9 -23 30 -54 67 -54 59 0 99 49 65 78 -7 6 -39 17
-71 25 -71 19 -105 40 -117 73 -16 40 -12 54 24 90 31 31 40 34 91 34 31 0 72
-7 91 -16z m204 2 c0 -8 -4 -18 -10 -21 -15 -9 -13 -268 2 -283 16 -16 10 -20
-46 -23 -47 -3 -71 10 -47 26 15 9 15 267 0 282 -20 20 1 33 52 33 36 0 49 -4
49 -14z m200 4 c61 -12 113 -47 136 -93 24 -45 22 -127 -4 -169 -34 -54 -55
-62 -185 -68 l-118 -5 7 25 c9 33 9 258 -1 293 l-7 27 60 0 c32 0 83 -5 112
-10z m406 -139 c30 -79 59 -150 65 -157 21 -26 4 -40 -46 -37 -54 3 -64 8 -48
24 8 8 7 23 -4 55 l-15 44 -52 0 c-53 0 -53 0 -69 -42 -13 -31 -14 -45 -5 -55
15 -19 4 -26 -42 -26 -49 0 -58 7 -38 30 13 15 59 127 118 286 9 25 14 28 46
25 l35 -3 55 -144z m265 138 c135 -29 189 -193 95 -288 l-36 -36 -120 -3 c-98
-3 -120 -1 -120 10 0 8 3 17 6 21 8 7 5 253 -3 285 -5 21 -3 22 60 22 36 0 89
-5 118 -11z m-1594 -518 c85 -39 123 -154 79 -240 -18 -34 -14 -53 6 -33 20
20 28 14 28 -22 0 -42 -23 -53 -71 -33 -28 11 -40 11 -73 0 -132 -46 -263 78
-227 214 30 110 149 163 258 114z m1680 4 c50 -21 72 -42 94 -90 63 -138 -63
-285 -211 -245 -88 24 -130 79 -130 171 0 131 126 214 247 164z m-2948 -5 c39
-11 86 -51 107 -92 21 -40 18 -127 -6 -165 -30 -50 -72 -66 -182 -71 -106 -5
-139 1 -120 20 15 15 17 284 2 293 -5 3 -10 10 -10 16 0 12 166 12 209 -1z
m421 -25 c0 -24 -5 -35 -15 -35 -8 0 -15 5 -15 10 0 6 -32 10 -75 10 l-75 0 0
-35 0 -35 60 0 c33 0 60 4 60 10 0 6 7 10 15 10 11 0 15 -12 15 -45 0 -33 -4
-45 -15 -45 -8 0 -15 5 -15 10 0 6 -27 10 -60 10 l-60 0 0 -60 0 -60 74 0 c53
0 77 4 86 15 21 25 30 17 30 -25 l0 -40 -140 0 c-115 0 -140 3 -140 14 0 8 5
18 10 21 6 4 10 62 10 141 0 83 -4 134 -10 134 -5 0 -10 7 -10 15 0 13 22 15
135 15 l135 0 0 -35z m140 20 c0 -8 -4 -15 -10 -15 -6 0 -10 -50 -10 -130 l0
-130 65 0 c49 0 67 4 71 15 13 32 34 16 34 -25 l0 -40 -130 0 c-109 0 -130 2
-130 15 0 8 5 15 10 15 6 0 10 53 10 140 0 87 -4 140 -10 140 -5 0 -10 7 -10
15 0 12 13 15 55 15 42 0 55 -3 55 -15z m980 6 c0 -5 -7 -15 -17 -22 -28 -24
-53 -91 -53 -146 0 -70 26 -99 98 -108 l52 -7 0 131 c0 81 -4 131 -10 131 -5
0 -10 7 -10 15 0 12 13 15 55 15 42 0 55 -3 55 -15 0 -8 -4 -15 -10 -15 -6 0
-10 -51 -10 -134 0 -79 4 -137 10 -141 6 -3 10 -13 10 -22 0 -24 -214 -15
-253 11 -62 42 -75 135 -32 231 13 31 22 62 19 70 -5 12 4 15 45 15 28 0 51
-4 51 -9z m300 -5 c0 -8 -4 -18 -10 -21 -6 -4 -10 -60 -10 -135 0 -75 4 -131
10 -135 6 -3 10 -13 10 -21 0 -10 -14 -14 -55 -14 -42 0 -55 3 -55 15 0 8 5
15 10 15 6 0 10 53 10 139 0 83 -4 142 -10 146 -24 15 -6 25 45 25 41 0 55 -4
55 -14z m202 -58 l68 -73 0 58 c0 31 -4 57 -10 57 -5 0 -10 7 -10 15 0 11 12
15 45 15 42 0 58 -11 35 -25 -6 -4 -10 -63 -10 -146 0 -86 4 -139 10 -139 6 0
10 -7 10 -15 0 -11 -12 -15 -45 -15 -33 0 -45 4 -45 14 0 8 5 18 10 21 6 3 10
20 10 38 0 26 -14 45 -77 109 -43 43 -81 78 -85 78 -12 0 -10 -218 2 -225 6
-3 10 -13 10 -21 0 -10 -12 -14 -45 -14 -33 0 -45 4 -45 15 0 8 5 15 10 15 6
0 10 53 10 139 0 83 -4 142 -10 146 -24 15 -6 25 43 25 52 1 52 1 119 -72z
m415 40 c72 -48 99 -155 57 -229 -33 -57 -90 -79 -206 -79 -79 0 -98 3 -98 14
0 8 5 18 10 21 13 8 12 275 -1 275 -5 0 -9 7 -9 16 0 14 14 15 103 12 92 -3
108 -6 144 -30z m213 17 c0 -8 -4 -15 -10 -15 -6 0 -10 -51 -10 -134 0 -79 4
-137 10 -141 6 -3 10 -13 10 -21 0 -10 -14 -14 -55 -14 -42 0 -55 3 -55 15 0
8 5 15 10 15 6 0 10 53 10 140 0 87 -4 140 -10 140 -5 0 -10 7 -10 15 0 12 13
15 55 15 42 0 55 -3 55 -15z"/>
<path d="M2453 3616 c-97 -31 -196 -127 -234 -224 -21 -55 -22 -73 -26 -472
-2 -272 0 -437 7 -480 34 -199 194 -329 394 -318 175 10 318 139 346 314 12
74 12 807 0 882 -20 119 -99 225 -207 278 -47 24 -72 29 -147 31 -57 2 -107
-2 -133 -11z"/>
<path d="M2730 1940 l0 -90 185 0 185 0 0 90 0 90 -185 0 -185 0 0 -90z"/>
<path d="M2960 1191 l0 -121 51 0 c43 0 55 5 80 29 23 23 29 38 29 71 0 77
-39 119 -123 135 l-37 7 0 -121z"/>
<path d="M3620 1191 l0 -121 51 0 c43 0 55 5 80 29 23 23 29 38 29 71 0 77
-39 119 -123 135 l-37 7 0 -121z"/>
<path d="M1982 784 c-49 -34 -66 -112 -38 -179 8 -18 23 -38 34 -44 25 -13
102 -15 102 -2 0 12 -26 21 -60 21 -25 0 -49 25 -36 37 14 14 86 14 113 -1 30
-15 31 -15 37 7 16 62 -9 147 -50 166 -35 15 -76 14 -102 -5z"/>
<path d="M3683 790 c-51 -21 -75 -106 -49 -174 23 -60 76 -85 131 -62 42 18
65 61 65 121 0 98 -65 148 -147 115z"/>
<path d="M740 670 l0 -123 53 6 c42 5 58 13 81 38 25 28 28 37 24 81 -7 67
-46 108 -112 115 l-46 6 0 -123z"/>
<path d="M3150 670 l0 -120 35 0 c83 0 125 39 125 116 0 71 -55 124 -129 124
l-31 0 0 -120z"/>
</g>
</svg>
