<?xml version="1.0" standalone="no"?>
<!DOCTYPE svg PUBLIC "-//W3C//DTD SVG 20010904//EN"
 "http://www.w3.org/TR/2001/REC-SVG-20010904/DTD/svg10.dtd">
<svg version="1.0" xmlns="http://www.w3.org/2000/svg"
 width="220.000000pt" height="272.000000pt" viewBox="0 0 220.000000 272.000000"
 preserveAspectRatio="xMidYMid meet">

<g transform="translate(0.000000,272.000000) scale(0.100000,-0.100000)"
fill="#000000" stroke="none">
<path d="M330 1837 c0 -964 -2 -934 63 -1019 21 -27 56 -55 96 -75 l63 -33
536 0 537 0 50 24 c64 29 112 77 141 141 l24 50 0 893 0 892 -755 0 -755 0 0
-873z m1060 242 c55 -25 105 -71 133 -124 21 -38 22 -55 25 -342 2 -192 -1
-316 -8 -342 -18 -67 -69 -132 -129 -163 -141 -74 -318 -3 -365 146 -15 47
-17 93 -14 358 3 288 4 305 25 343 47 89 138 145 233 145 34 0 72 -8 100 -21z
m258 -1116 l-3 -68 -125 0 -125 0 -3 68 -3 67 131 0 131 0 -3 -67z"/>
<path d="M63 510 c-17 -45 -20 -66 -13 -91 14 -46 36 -58 112 -59 l67 0 3 105
c3 100 2 105 -17 105 -20 0 -21 -5 -17 -95 l4 -95 -44 0 c-31 0 -50 6 -61 18
-23 25 -21 89 3 135 19 35 19 37 2 37 -13 0 -24 -17 -39 -60z"/>
<path d="M280 465 c0 -87 3 -105 15 -105 12 0 15 16 15 87 l0 87 60 -59 c45
-44 60 -66 60 -87 0 -15 4 -28 9 -28 6 0 11 47 13 105 2 88 1 105 -12 105 -12
0 -14 -10 -12 -45 2 -25 0 -45 -5 -45 -5 0 -29 20 -53 45 -27 27 -53 45 -67
45 -23 0 -23 -2 -23 -105z"/>
<path d="M505 465 c0 -98 1 -105 20 -105 19 0 20 7 20 105 0 98 -1 105 -20
105 -19 0 -20 -7 -20 -105z"/>
<path d="M577 558 c4 -7 22 -53 39 -103 24 -70 35 -91 51 -93 18 -3 25 10 53
90 17 51 34 99 37 106 3 7 -4 12 -17 12 -12 0 -18 -4 -15 -10 4 -6 -3 -38 -15
-72 -26 -75 -36 -94 -42 -82 -15 27 -49 145 -43 154 4 6 -6 10 -25 10 -23 0
-29 -3 -23 -12z"/>
<path d="M788 465 l3 -105 83 0 c65 0 83 3 83 14 0 11 -5 12 -18 5 -10 -5 -38
-9 -63 -9 l-46 0 0 51 0 51 50 -4 c39 -2 50 0 50 12 0 12 -11 14 -50 12 -50
-4 -50 -4 -50 27 0 31 0 31 54 31 34 0 56 -5 59 -12 3 -7 6 -3 6 10 1 21 -2
22 -81 22 l-83 0 3 -105z"/>
<path d="M995 465 c0 -99 1 -105 20 -105 18 0 20 5 17 41 -7 74 28 77 67 4 15
-29 30 -45 43 -45 17 0 17 3 -8 46 l-27 45 22 15 c29 20 28 68 -1 88 -14 10
-44 16 -78 16 l-55 0 0 -105z m113 73 c17 -17 15 -55 -4 -62 -9 -3 -29 -6 -45
-6 -27 0 -29 2 -29 40 0 39 1 40 33 40 18 0 38 -5 45 -12z"/>
<path d="M1222 554 c-47 -33 -19 -83 56 -99 32 -7 62 -28 62 -45 0 -18 -33
-40 -59 -40 -30 0 -46 13 -52 42 -4 15 -6 15 -24 2 -20 -15 -20 -16 8 -40 39
-33 99 -33 132 1 46 45 28 79 -60 112 -37 14 -50 24 -50 38 0 16 8 21 43 23
36 3 43 0 50 -18 7 -19 10 -20 21 -7 30 37 -80 64 -127 31z"/>
<path d="M1415 465 c0 -98 1 -105 20 -105 19 0 20 7 20 105 0 98 -1 105 -20
105 -19 0 -20 -7 -20 -105z"/>
<path d="M1505 466 l0 -106 62 0 c34 0 73 5 86 11 62 28 61 134 -1 175 -14 9
-53 19 -86 21 l-61 5 0 -106z m114 70 c28 -15 51 -53 51 -85 0 -10 -9 -30 -21
-45 -17 -21 -29 -26 -65 -26 l-44 0 0 85 c0 84 0 85 25 85 15 0 38 -6 54 -14z"/>
<path d="M1797 563 c-3 -4 -20 -46 -37 -93 -18 -47 -37 -91 -43 -97 -7 -10 -4
-13 10 -13 14 0 22 10 29 38 8 34 12 37 50 40 35 3 42 0 52 -23 7 -14 12 -32
12 -40 0 -9 10 -15 26 -15 18 0 23 4 17 13 -4 6 -24 52 -43 102 -33 82 -58
113 -73 88z m26 -50 c2 -10 8 -26 12 -35 6 -15 2 -18 -24 -18 -34 0 -37 6 -19
45 13 29 24 32 31 8z"/>
<path d="M1948 464 l3 -106 75 4 c66 3 78 7 95 28 24 32 24 87 -1 127 -21 35
-67 53 -135 53 l-40 0 3 -106z m119 66 c37 -22 52 -74 32 -111 -17 -33 -28
-39 -76 -39 l-43 0 0 78 c0 43 3 82 7 85 12 13 48 7 80 -13z"/>
<path d="M1899 283 c-13 -15 -12 -15 9 -4 23 12 28 21 13 21 -5 0 -15 -7 -22
-17z"/>
<path d="M884 220 c-56 -22 -80 -100 -49 -159 19 -38 56 -50 148 -49 60 1 77
4 77 16 0 8 -6 12 -15 9 -19 -8 -31 11 -16 26 14 14 14 92 0 119 -20 37 -97
58 -145 38z m105 -36 c21 -26 27 -67 15 -98 -5 -12 -17 -14 -52 -11 -44 5 -45
4 -14 -5 42 -14 43 -40 1 -40 -43 0 -65 15 -78 51 -13 39 1 103 27 118 33 20
79 13 101 -15z"/>
<path d="M2004 211 c-64 -39 -70 -128 -12 -176 28 -23 39 -26 80 -23 58 6 95
36 104 85 13 67 -42 133 -111 133 -16 0 -44 -9 -61 -19z m116 -21 c28 -28 27
-98 -1 -134 -46 -58 -129 -17 -129 64 0 77 80 120 130 70z"/>
<path d="M20 120 l0 -100 70 0 c62 0 74 3 95 25 27 26 34 89 15 126 -17 30
-64 49 -125 49 l-55 0 0 -100z m127 65 c13 -9 25 -30 29 -52 9 -50 -11 -85
-58 -97 -61 -15 -68 -7 -68 82 0 43 3 82 7 86 10 10 62 -1 90 -19z"/>
<path d="M258 121 l3 -100 80 -3 c73 -3 79 -1 79 17 0 15 -3 16 -12 7 -7 -7
-36 -12 -66 -12 l-53 0 3 47 3 48 48 -1 c27 0 47 4 47 10 0 7 -19 10 -50 8
l-50 -4 0 37 0 37 60 -4 c33 -1 60 0 60 5 0 4 -35 7 -77 7 l-78 0 3 -99z"/>
<path d="M460 120 l0 -100 75 0 c63 0 75 3 75 16 0 13 -3 14 -14 5 -8 -7 -34
-11 -58 -9 l-43 3 0 93 c0 81 -2 92 -17 92 -16 0 -18 -11 -18 -100z"/>
<path d="M1102 175 c-28 -57 -28 -95 -1 -129 19 -24 27 -26 92 -26 l72 0 0
100 c0 89 -2 100 -17 100 -16 0 -18 -11 -18 -96 l0 -97 -40 6 c-23 3 -47 11
-55 17 -26 21 -29 74 -6 124 27 62 3 63 -27 1z"/>
<path d="M1318 117 c-3 -99 -2 -103 17 -99 18 3 20 11 20 103 0 86 -2 99 -17
99 -14 0 -17 -14 -20 -103z"/>
<path d="M1410 120 c0 -73 3 -100 13 -100 9 0 11 22 9 85 -2 47 0 85 5 85 5 0
35 -27 67 -59 48 -49 58 -64 54 -85 -4 -18 -1 -26 8 -26 11 0 14 22 14 100 0
76 -3 100 -13 100 -9 0 -12 -10 -9 -30 2 -16 1 -37 -2 -47 -6 -14 -15 -8 -54
30 -28 28 -57 47 -70 47 -21 0 -22 -3 -22 -100z"/>
<path d="M1635 120 l0 -100 72 0 c68 0 72 1 98 32 36 43 30 100 -15 141 -26
23 -39 27 -93 27 l-62 0 0 -100z m135 55 c54 -54 14 -145 -66 -145 l-34 0 0
91 0 91 38 -7 c20 -3 48 -17 62 -30z"/>
<path d="M1870 120 c0 -93 1 -100 20 -100 19 0 20 7 20 100 0 93 -1 100 -20
100 -19 0 -20 -7 -20 -100z"/>
</g>
</svg>
